<?xml version="1.0" encoding="utf-8"?>
<!-- Generator: $$$/GeneralStr/196=Adobe Illustrator 27.6.0, SVG Export Plug-In . SVG Version: 6.00 Build 0)  -->
<svg version="1.1" id="Layer_1" xmlns="http://www.w3.org/2000/svg" xmlns:xlink="http://www.w3.org/1999/xlink" x="0px" y="0px"
	 width="151" height="33" viewBox="0 0 151 33" style="enable-background:new 0 0 151 33;" xml:space="preserve">
<style type="text/css">
	.st0{fill:#F26727;}
	.st1{fill:#7FCBCD;}
	.st2{fill:#A5F2EE;}
	.st3{fill:#0CA1A6;}
	.st4{fill:#006D70;}
	.st5{fill:#FFFFFF;}
	.st6{fill:#008B9C;}
</style>
<g>
	<g>
		<rect x="42.5" y="14.9" class="st0" width="10" height="3.2"/>
		<path class="st1" d="M47.9,26.3c-0.5,0-1.1-0.1-1.7-0.2c-6.9-1-11-8-11.7-9.4l1.1-0.5C36,17,39.9,24,46.3,25
			c0.5,0.1,1,0.1,1.5,0.1L47.9,26.3z"/>
		<path class="st0" d="M42.5,8.7l-0.2-0.5c-4.6,2.5-7.2,7.5-7.7,8.5l-0.5,1l-0.5-0.2l-0.2,0.5l1.8,0.8L36,17
			c0.5-0.9,4.2-7.4,10.1-8.5l-0.2-1C44.7,7.7,43.5,8.1,42.5,8.7z"/>
		<path class="st2" d="M21.7,8.2L21.9,8c-1.3-0.7-2.7-1.1-4-1.4c-0.5-0.1-1.1-0.1-1.7-0.1c-4.5,0-8.5,2.7-10,6.7l1.4,0.5
			C8.9,10.3,12.4,8,16.2,8c0.5,0,1,0,1.4,0.1c2.6,0.4,5.1,1.8,7.4,4.2l0.8-0.8C24.8,10.3,23.3,9.1,21.7,8.2z"/>
		<path class="st1" d="M11.2,26.2c-3.8-1.8-6.3-5.6-6.3-9.7c0-2.1,0.6-4,1.8-5.8C7.1,10,7.6,9.4,8.2,8.9l0.7,0.8
			c-0.5,0.5-1,1.1-1.4,1.7c-1.1,1.5-1.6,3.4-1.6,5.2c0,3.7,2.2,7.1,5.8,8.8L11.2,26.2z"/>
		<path class="st1" d="M30,17.8l-0.5-1.1c-0.1-0.1-0.1-0.2-0.2-0.3c-0.8,1.4-4.9,8.7-11.6,9.6c-0.5,0.1-1.1,0.2-1.7,0.2
			c-1.6,0-3-0.3-4.5-1l-0.5,0.9c1.5,0.8,3.2,1.1,5,1.1c0.6,0,1.2-0.1,1.8-0.2C24.5,26.3,28.6,20.4,30,17.8L30,17.8z"/>
		<path class="st0" d="M31.4,22.7c-1.3,1.8-2.7,3.4-4.3,4.6l0.4,0.5c1.5-1.2,3-2.7,4.3-4.5c2.7,3.7,7.2,8,13.6,8.9l0.2-1.1
			c-6.6-0.9-11-5.6-13.6-9.6C31.7,21.4,31.4,22.7,31.4,22.7z"/>
		<path class="st0" d="M30.6,17.6L30,17.8l-0.5-1.1c-0.3-0.7-1.6-3-3.7-5.2l-0.8,0.8c1.8,1.9,2.9,3.8,3.3,4.5l1.5,2.7l1.3-0.8
			L30.6,17.6z"/>
		<path class="st3" d="M33.9,19l-3.4-1.7l0.8-1.8c0.5-1.1,2.5-5,6.1-8.2l1.4-1.3L41.4,9l-1.4,1.4c-3,2.7-4.8,6.2-5.2,6.9L33.9,19z"
			/>
		<path class="st4" d="M8.9,9.6L8.2,8.9c2.1-2,5-3.1,8-3.1c0.6,0,1.2,0.1,1.8,0.2c1.4,0.2,2.9,0.7,4.3,1.4l-0.5,0.9
			c-1.3-0.7-2.6-1.1-3.9-1.3c-0.5-0.1-1.1-0.2-1.7-0.2C13.4,6.8,10.8,7.8,8.9,9.6z"/>
		<path class="st4" d="M1.8,16.5H1.1c0-3.9,1.6-7.5,4.5-10.3L6,6.7C3.2,9.3,1.8,12.8,1.8,16.5z"/>
		<path class="st4" d="M26.9,5.6c-2.6-2.1-5.4-3.3-8.4-3.7c-0.8-0.1-1.6-0.2-2.4-0.2c-3.1,0-6.1,0.8-8.6,2.5L7.1,3.5
			c2.7-1.8,5.8-2.7,9.1-2.7C17,0.9,17.8,1,18.6,1c3.1,0.5,6.1,1.8,8.8,3.9L26.9,5.6z"/>
		<path class="st1" d="M34.8,11.4l-1.2-0.9c2.4-3.1,6.4-6.9,12.1-7.8c0.8-0.1,1.5-0.2,2.2-0.2c1.9,0,3.8,0.4,5.6,1.1L52.9,5
			c-1.6-0.6-3.3-0.9-5-0.9c-0.7,0-1.4,0.1-2.1,0.2C40.6,4.9,37,8.5,34.8,11.4z"/>
		<path class="st1" d="M32.4,13.8l-1.7-0.7l0.5-1.2l0.1-0.1c2.1-3.4,6.9-9.2,14.2-10.3c0.8-0.1,1.6-0.2,2.4-0.2v1.8
			c-0.7,0-1.4,0.1-2.1,0.2C39.4,4.2,35.2,9,32.9,12.8L32.4,13.8z"/>
		<path class="st0" d="M58.7,6C55.8,3.2,52,1.7,47.9,1.7c-0.8,0-1.6,0.1-2.4,0.2L45.4,1c0.8-0.2,1.7-0.2,2.4-0.2
			c4.3,0,8.4,1.6,11.4,4.5L58.7,6z"/>
		<path class="st4" d="M58.7,26.8c-2.9,2.7-6.7,4.3-10.8,4.3c-0.8,0-1.6-0.1-2.4-0.2l-0.2,0.8c0.8,0.2,1.7,0.2,2.4,0.2
			c4.3,0,8.4-1.6,11.4-4.5L58.7,26.8z"/>
		<path class="st2" d="M18.3,29.7L18,27.5c8.7-1.2,13-11.3,13-11.4c0.2-0.5,4.8-11.4,14.7-12.7L46,5.5c-8.7,1.2-13,11.3-13,11.4
			C32.9,17.4,28.2,28.2,18.3,29.7z"/>
		<path class="st0" d="M9.2,27.5l0.9-1.6c2.4,1.4,5,1.8,7.8,1.4l0.3,1.9c1.8-0.2,3.6-0.9,5.3-1.8l-1.6-2.7c-1.3,0.8-2.7,1.2-4.1,1.4
			c-0.5,0.1-1.1,0.2-1.6,0.2c-2.7,0-5.3-1-7.2-2.8c-0.9-0.9-1.7-1.9-2.1-3l-2.7,1.2c0.7,1.5,1.6,2.8,2.8,4l-0.2-0.1
			C7.5,26.3,8.3,26.9,9.2,27.5z"/>
		<path class="st4" d="M16.2,30.1c-3.8,0-7.3-1.4-10.1-4l0.6-0.6c2.5,2.4,5.9,3.7,9.4,3.7c0.7,0,1.4-0.1,2.1-0.2
			c7.2-1,11.4-7.1,13.4-10.6l0.5-1.1l0.8,0.3l-0.5,1.2c-2,3.7-6.6,10-14,11C17.6,30.1,16.9,30.1,16.2,30.1z"/>
		<path class="st4" d="M16.2,32.5c-4.4,0-8.5-1.7-11.7-4.6l1.1-1.1c2.8,2.7,6.6,4.2,10.5,4.2c0.8,0,1.5-0.1,2.3-0.2
			c3-0.5,5.8-1.7,8.3-3.7l1,1.2c-2.7,2.3-5.9,3.7-9.1,4.1C17.8,32.4,17,32.5,16.2,32.5z"/>
		<path class="st2" d="M18.5,31.2l-0.2-1.4c6.4-0.9,10.7-5.7,13.1-9.5c0.1-0.2,0.8-1.3,1-1.8l1.2,0.6c-0.3,0.5-1,1.8-1,1.8l0,0
			C30,25.2,25.5,30.2,18.5,31.2z"/>
		<path class="st2" d="M9.3,27.4c-4-2.3-6.4-6.4-6.4-10.9c0-0.7,0.1-1.3,0.2-2l1,0.2c-0.1,0.6-0.2,1.2-0.2,1.8
			c0,4.1,2.2,7.9,5.9,10.1L9.3,27.4z"/>
		<path class="st0" d="M4.5,14.7l-1.9-0.2C3.1,11.1,5,8,7.9,6c3-2.1,6.6-3,10.4-2.4c0.8,0.2,1.7,0.3,2.5,0.6L20.2,6
			c-0.7-0.2-1.4-0.4-2.1-0.5C11.4,4.5,5.5,8.6,4.5,14.7z"/>
		<path class="st1" d="M42,24.8L41.8,25c1.3,0.7,2.7,1.1,4,1.4c0.5,0.1,1.1,0.2,1.7,0.2c4.5,0,8.5-2.7,10-6.7l-1.4-0.5
			c-1.3,3.4-4.6,5.7-8.5,5.7c-0.5,0-1,0-1.4-0.1c-2.6-0.4-5.1-1.8-7.4-4.2l-0.8,0.8C39,22.7,40.4,23.9,42,24.8z"/>
		<path class="st0" d="M54.9,23.4l0.7,0.8c-2.1,2.1-5,3.1-8,3.1c-0.6,0-1.2-0.1-1.8-0.2c-1.4-0.2-2.9-0.7-4.3-1.4l0.5-0.9
			c1.3,0.7,2.6,1.1,3.9,1.3c0.5,0.1,1.1,0.2,1.7,0.2C50.4,26.3,53,25.2,54.9,23.4z"/>
		<path class="st4" d="M62,16.5h0.6c0,3.9-1.6,7.5-4.4,10.3l-0.5-0.5C60.5,23.7,62,20.2,62,16.5z"/>
		<path class="st2" d="M59.2,18.3l1.9,0.3c-0.5,3.4-2.4,6.5-5.3,8.5c-3,2.1-6.6,3-10.4,2.4c-0.8-0.2-1.7-0.3-2.4-0.6l0.6-1.8
			c0.7,0.2,1.4,0.4,2.1,0.5C52.3,28.5,58.2,24.4,59.2,18.3z"/>
		<path class="st2" d="M16.2,31.4c-4.1,0-8-1.5-10.9-4.3c-2.7-2.5-4.3-5.9-4.5-9.4l0,0v-1.1l1.4-0.1v1.1c0.2,3.3,1.7,6.2,4.1,8.6
			c2.7,2.5,6.2,4,9.9,4c0.7,0,1.4-0.1,2.2-0.2l0.2,1.4C17.8,31.4,16.9,31.4,16.2,31.4z"/>
		<path class="st4" d="M22.6,26.6l-0.5-0.8l0.4-0.2c4.9-2.8,7.6-8.2,8.2-9.2l0.2-0.4l0.8,0.4l-0.2,0.4c-0.5,1.1-3.4,6.7-8.5,9.6
			L22.6,26.6z"/>
		<path class="st3" d="M33.4,16c-0.1-0.1-0.4-0.8-0.9-1.9l0.2-0.2c-2.1-3.7-6.6-10.1-14.3-11.2c-0.8-0.1-1.5-0.2-2.2-0.2V4
			c0.7,0,1.4,0.1,2.1,0.2c0.8,0.2,1.6,0.3,2.4,0.5l-0.5,1.7C27.1,8.7,30.6,17,30.7,17c0.2,0.5,4.9,11.5,15,13l0.4-3
			C37.7,25.9,33.5,16,33.4,16z"/>
		<rect x="14.6" y="11.5" class="st3" width="3.2" height="10"/>
		<rect x="11.3" y="14.9" class="st0" width="10" height="3.2"/>
		<path class="st4" d="M64.2,17.9l-1.3-0.2c0.1-0.5,0.1-0.9,0.1-1.4c0-4-1.6-7.6-4.4-10.4l0.9-0.9c3.1,3,4.9,7,4.9,11.3
			C64.2,17,64.2,17.5,64.2,17.9z"/>
		<path class="st2" d="M59.8,18.7L59,18.6c0.2-0.7,0.2-1.4,0.2-2.1c0-2.9-1.1-5.6-3.3-7.6l0.6-0.6c2.3,2.2,3.6,5.1,3.6,8.2
			C60.1,17.3,60,17.9,59.8,18.7z"/>
		<path class="st0" d="M58.4,18.9l-1.9-0.5c0.2-0.6,0.2-1.3,0.2-1.9c0-4.6-4-8.2-8.8-8.2c-0.5,0-1,0-1.4,0.1c-0.2,0-0.2,0.1-0.4,0.1
			l-0.4-2c0.2,0,0.3-0.1,0.5-0.1c0.6-0.1,1.1-0.2,1.7-0.2c5.9,0,10.7,4.6,10.7,10.2C58.7,17.3,58.5,18.1,58.4,18.9z"/>
		<path class="st2" d="M47.9,30.6c-0.8,0-1.5-0.1-2.3-0.2c-3.4-0.5-6.5-2.1-9.3-4.6l1.2-1.3c2.5,2.4,5.3,3.7,8.3,4.2
			c0.8,0.1,1.6,0.2,2.4,0.2l0.1,1.8C48.2,30.6,48,30.6,47.9,30.6z"/>
		<path class="st0" d="M61.3,16.5h-1.2c0-3.3-1.4-6.4-4-8.6c-2.7-2.3-6.4-3.4-10.1-2.9l-0.2-1.2c4-0.6,8,0.6,11,3.1
			C59.7,9.5,61.3,12.9,61.3,16.5z"/>
		<path class="st3" d="M4.3,28.2c-1.8-1.7-3-3.7-3.9-5.8l2.2-0.8c0.8,1.8,1.8,3.5,3.4,5L4.3,28.2z"/>
		<path class="st2" d="M32.9,11.2L31.2,10c2.7-3.8,7.3-8.5,14.1-9.5l0.3,2.1C39.5,3.4,35.3,7.7,32.9,11.2z"/>
		<path class="st1" d="M32.4,12l-0.8-1.1c-1.4-2-3-3.7-4.7-5.1l0.8-1c1.8,1.4,3.5,3.3,5,5.3l0.8,1L32.4,12z"/>
		<path class="st1" d="M39,9.3l-0.7-0.8c2.4-2.1,5-3.4,7.6-3.7c0.6-0.1,1.3-0.2,1.9-0.2c3.3,0,6.4,1.2,8.7,3.4l-0.7,0.7
			c-2.1-1.9-4.9-3-7.9-3c-0.6,0-1.2,0.1-1.8,0.2C43.6,6.3,41.2,7.4,39,9.3z"/>
		<path class="st5" d="M57.5,13.8c-0.5-1.5-1.3-2.9-2.5-4c-1.5-1.4-3.5-2.4-5.6-2.7l0.2-1.4c2.4,0.4,4.6,1.4,6.4,3
			c1.4,1.3,2.4,2.9,2.9,4.6L57.5,13.8z"/>
		<path class="st4" d="M48.7,27.2c-0.8,0.1-1.8,0-2.6-0.1c-2-0.3-3.9-1.1-5.7-2.4l-0.5,0.8c1.9,1.4,4,2.2,6.2,2.5
			c0.6,0.1,1.3,0.2,1.9,0.2c0.3,0,0.5,0,0.8,0V27.2z"/>
	</g>
	<g>
		<path class="st6" d="M70.2,14.6L73.8,3H77l3.7,11.6h-3.1L77,12.2h-3.3l-0.6,2.4H70.2z M75.3,5.7L74.2,10h2.2L75.3,5.7z"/>
		<path class="st6" d="M82.6,3h4.7c3.2,0,4.4,1.6,4.4,3.9c0,1.6-0.6,2.8-1.9,3.5l2.3,4.3h-3.4l-1.8-3.7h-1.4v3.7h-2.9V3z M88.6,6.9
			c0-1-0.4-1.6-1.7-1.6h-1.5v3.3H87C88,8.6,88.6,8.2,88.6,6.9z"/>
		<path class="st6" d="M94,3h3.8c4.3,0,5.8,2.1,5.8,5.7c0,2.8-0.8,5.9-5.8,5.9H94V3z M96.9,5.3v6.9H98c2.4,0,2.6-1.4,2.6-3.4
			c0-2.3-0.2-3.5-2.8-3.5H96.9z"/>
		<path class="st6" d="M112.1,3h2.8v7.6c0,3.4-2.6,4.2-4.7,4.2c-2,0-4.5-0.7-4.5-4.2V3h2.9v7.1c0,1.9,0.7,2.4,1.8,2.4
			c1.3,0,1.8-0.6,1.8-2.4V3z"/>
		<path class="st6" d="M117.5,12.2h3V5.4h-3V3h8.9v2.4h-3v6.9h3v2.4h-8.9V12.2z"/>
		<path class="st6" d="M131.5,14.6h-2.7V3h3.1l3.8,7V3h2.7v11.6h-2.9l-4-7.4L131.5,14.6z"/>
		<path class="st6" d="M150.1,8.8c0,3.4-1.2,6-5,6c-3.3,0-4.9-2-4.9-5.9c0-3.5,1.3-6.1,4.9-6.1C148.4,2.8,150.1,4.4,150.1,8.8z
			 M147.1,8.8c0-2.8-0.2-3.6-1.9-3.6c-1.5,0-1.8,0.9-1.8,3.8c0,2.3,0.2,3.5,1.8,3.5C146.8,12.4,147.1,11.5,147.1,8.8z"/>
		<g>
			<path class="st0" d="M70.7,19.5h3.4c3.9,0,5.2,1.9,5.2,5.2c0,2.5-0.8,5.4-5.2,5.4h-3.5V19.5z M73.3,21.7v6.2h1
				c2.2,0,2.3-1.3,2.3-3.1c0-2.1-0.2-3.2-2.5-3.2H73.3z"/>
			<path class="st0" d="M80.3,30l3.3-10.5h2.9L89.9,30h-2.8l-0.6-2.2h-3L83,30H80.3z M85,22l-1,3.8h2L85,22z"/>
			<path class="st0" d="M95.1,23.8l1.9-4.3h2.6l-3.3,6.4V30h-2.6V26l-3.4-6.4h2.8L95.1,23.8z"/>
			<path class="st0" d="M101,22.4c0-1.8,1.8-3,4.1-3c1.2,0,2.2,0.2,3.4,0.8l-0.7,2.4c-0.7-0.6-1.6-1.1-2.7-1.1
				c-0.7,0-1.3,0.2-1.3,0.8c0,1.5,5.1,1.1,5.1,4.7c0,2.3-2.2,3.2-4.5,3.2c-1,0-2.3-0.1-3.6-1l0.9-2.4c0.8,0.8,1.8,1.2,3,1.2
				c0.8,0,1.5-0.2,1.5-0.9C106.1,25.5,101,26.1,101,22.4z"/>
		</g>
		<g>
			<path class="st4" d="M118.8,22.6c0-1.2-0.8-1.8-1.9-1.8c-0.8,0-1.7,0.5-2.2,1.1L114,21c0.5-0.6,1.7-1.4,3.2-1.4
				c1.6,0,2.9,1,2.9,2.8c0,2.2-2.8,5.2-5,6.7h5.5v1.1h-7.1v-0.9C115.5,28,118.8,24.6,118.8,22.6z"/>
			<path class="st4" d="M130.9,24.8c0,2.6-0.7,5.7-4.1,5.7c-2.7,0-3.9-1.9-3.9-5.2c0-3,0.9-5.6,4.1-5.6
				C129.8,19.6,130.9,21.6,130.9,24.8z M125,28.5l3.1-7.5c-0.3-0.2-0.7-0.3-1.2-0.3c-2.2,0-2.7,2.1-2.7,4.2
				C124.2,26.3,124.3,27.7,125,28.5z M129.6,24.9c0-1.2-0.1-2.6-0.8-3.4l-3.1,7.6c0.3,0.2,0.8,0.3,1.3,0.3
				C129.2,29.4,129.6,27,129.6,24.9z"/>
			<path class="st4" d="M138.5,22.6c0-1.2-0.8-1.8-1.9-1.8c-0.8,0-1.7,0.5-2.2,1.1l-0.7-0.8c0.5-0.6,1.7-1.4,3.2-1.4
				c1.6,0,2.9,1,2.9,2.8c0,2.2-2.8,5.2-5,6.7h5.5v1.1h-7.1v-0.9C135.2,28,138.5,24.6,138.5,22.6z"/>
			<path class="st4" d="M149,30.3h-1.3v-2.6h-5.1v-0.9l5-7h1.3v6.8h1.6v1.1H149V30.3z M147.8,26.6v-5.2l-3.8,5.2H147.8z"/>
		</g>
	</g>
</g>
</svg>
